<?xml version="1.0" encoding="utf-8"?>
<!-- Generator: Adobe Illustrator 17.1.0, SVG Export Plug-In . SVG Version: 6.00 Build 0)  -->
<!DOCTYPE svg PUBLIC "-//W3C//DTD SVG 1.1//EN" "http://www.w3.org/Graphics/SVG/1.1/DTD/svg11.dtd">
<svg version="1.1" id="Layer_1" xmlns="http://www.w3.org/2000/svg" xmlns:xlink="http://www.w3.org/1999/xlink" x="0px" y="0px"
	 width="145px" height="125px" viewBox="0 0 145 125" enable-background="new 0 0 145 125" xml:space="preserve">
<g id="Layer_3">
	<g>
		<path fill="none" stroke="#009900" stroke-width="2" stroke-linecap="round" stroke-linejoin="round" stroke-miterlimit="10" d="
			M84.8,9.9h-50c-11.1,0-20,8.9-20,20v18c0,11.1,9,18,20.2,18h7.8v22l19.9-22h22.1c11.1,0,22-8.9,22-20v-16
			C106.8,18.7,96,9.9,84.8,9.9z"/>
		<path fill="none" stroke="#009900" stroke-width="2" stroke-linecap="round" stroke-linejoin="round" stroke-miterlimit="10" d="
			M70.8,85.9c0,7,5,12,12,12h12l16,16v-16h7.5c7,0,12.7-5.7,12.6-12.7l-0.1-9.2c0-7-5-12.1-12-12.1"/>
	</g>
</g>
</svg>
