<?xml version="1.0" encoding="utf-8"?>
<!-- Generator: Adobe Illustrator 17.1.0, SVG Export Plug-In . SVG Version: 6.00 Build 0)  -->
<!DOCTYPE svg PUBLIC "-//W3C//DTD SVG 1.1//EN" "http://www.w3.org/Graphics/SVG/1.1/DTD/svg11.dtd">
<svg version="1.1" id="Layer_1" xmlns="http://www.w3.org/2000/svg" xmlns:xlink="http://www.w3.org/1999/xlink" x="0px" y="0px"
	 width="145px" height="125px" viewBox="0 0 145 125" enable-background="new 0 0 145 125" xml:space="preserve">
<g id="Layer_1_1_">
	<g>
		<path fill="none" stroke="#FF9933" stroke-width="2" stroke-linejoin="round" stroke-miterlimit="10" d="M130.9,55
			c0,26.1-26,47.3-58,47.3c-7.1,0-14-1.1-20.3-3l-33.7,16.3l13.4-26.9C21.5,80.2,14.9,68.2,14.9,55c0-26.1,26-47.3,58-47.3
			C104.9,7.7,130.9,28.9,130.9,55z"/>
		
			<circle fill="none" stroke="#FF9933" stroke-width="2" stroke-linecap="round" stroke-linejoin="round" stroke-miterlimit="10" cx="74.9" cy="77.7" r="2"/>
		<path fill="none" stroke="#FF9933" stroke-width="2" stroke-linecap="round" stroke-linejoin="round" stroke-miterlimit="10" d="
			M60.2,46.1c0-8.4,6.8-15.4,15.1-15.4c8.4,0,15.1,6.6,15.1,15c0,8.4-7.3,14-15.7,14v8"/>
	</g>
</g>
</svg>
