<?xml version="1.0" encoding="utf-8"?>
<!-- Generator: Adobe Illustrator 17.1.0, SVG Export Plug-In . SVG Version: 6.00 Build 0)  -->
<!DOCTYPE svg PUBLIC "-//W3C//DTD SVG 1.1//EN" "http://www.w3.org/Graphics/SVG/1.1/DTD/svg11.dtd">
<svg version="1.1" id="Layer_1" xmlns="http://www.w3.org/2000/svg" xmlns:xlink="http://www.w3.org/1999/xlink" x="0px" y="0px"
	 width="145px" height="125px" viewBox="0 0 145 125" enable-background="new 0 0 145 125" xml:space="preserve">
<g id="Layer_4">
	<g>
		<path fill="none" stroke="#1B8CE3" stroke-width="2" stroke-miterlimit="10" d="M80.4,47.7h6v12l10-12h12c12.5,0,22-8.8,22-21.3
			c0-12.5-10.2-22.7-22.7-22.7H77.4c-12.5,0-22.7,10.2-22.7,22.7"/>
		<path fill="none" stroke="#1B8CE3" stroke-width="2" stroke-miterlimit="10" d="M42.4,83.1v10.6l-20.1,7.2
			c-4.8,1.7-7.9,5.7-7.9,10.8v8h76v-8c0-5-3.5-9.1-8.2-10.8l-19.8-7.2V82.1"/>
		<ellipse fill="none" stroke="#1B8CE3" stroke-width="2" stroke-miterlimit="10" cx="51.7" cy="61.9" rx="19.9" ry="23.9"/>
		<path fill="none" stroke="#1B8CE3" stroke-width="2" stroke-miterlimit="10" d="M71.5,59.8c-0.7,0.1-1.2,0-1.9,0.1
			c-6.8,1.3-11.1-1.2-14.9-7.7c-2.2,4.3-9.2,7.7-15,7.7c-2.8,0-5.3-0.5-7.8-1.8"/>
		<g>
			<polygon fill="#1B8CE3" stroke="#1B8CE3" stroke-miterlimit="10" points="108.4,25.7 104.4,25.7 104.4,29.7 108.4,29.7 			"/>
		</g>
		<g>
			<polygon fill="#1B8CE3" stroke="#1B8CE3" stroke-miterlimit="10" points="96.4,25.7 92.4,25.7 92.4,29.7 96.4,29.7 			"/>
		</g>
		<g>
			<polygon fill="#1B8CE3" stroke="#1B8CE3" stroke-miterlimit="10" points="84.4,25.7 80.4,25.7 80.4,29.7 84.4,29.7 			"/>
		</g>
	</g>
</g>
</svg>
