<?xml version="1.0" encoding="iso-8859-1"?>
<!-- Generator: Adobe Illustrator 17.1.0, SVG Export Plug-In . SVG Version: 6.00 Build 0)  -->
<!DOCTYPE svg PUBLIC "-//W3C//DTD SVG 1.1//EN" "http://www.w3.org/Graphics/SVG/1.1/DTD/svg11.dtd">
<svg version="1.1" id="mp_x5F_view_x5F_32_x5F_n_x5F_lt"
	 xmlns="http://www.w3.org/2000/svg" xmlns:xlink="http://www.w3.org/1999/xlink" x="0px" y="0px" heigth="32"  width="32" viewBox="0 0 32 32"
	 style="enable-background:new 0 0 32 32;" xml:space="preserve">
<path style="fill-rule:evenodd;clip-rule:evenodd;fill:#454545;" d="M16,23.39c-6.45,0-11.86-5.31-11.86-7.01
	c0-1.19,2.64-4.53,6.42-6.44c0.03,0.08,0.1,0.17,0.22,0.25c-1.04,0.93-1.67,2.28-1.67,4.13c0,4.1,3.09,7.42,6.89,7.42
	c3.81,0,6.89-3.32,6.89-7.42c0-1.73-0.55-3.02-1.47-3.94c0.18-0.07,0.32-0.15,0.42-0.23c3.57,1.94,6.02,5.08,6.02,6.23
	C27.86,18.08,22.45,23.39,16,23.39z M15.96,11.12c1.66,0,3.01,1.45,3.01,3.24s-1.35,3.24-3.01,3.24s-3.01-1.45-3.01-3.24
	S14.3,11.12,15.96,11.12z M16,6C8.39,6,2,14.32,2,16.38S8.33,26,15.94,26S30,18.44,30,16.38S23.61,6,16,6z"/>
</svg>
