<?xml version="1.0" encoding="utf-8"?>
<!-- Generator: Adobe Illustrator 17.1.0, SVG Export Plug-In . SVG Version: 6.00 Build 0)  -->
<!DOCTYPE svg PUBLIC "-//W3C//DTD SVG 1.1//EN" "http://www.w3.org/Graphics/SVG/1.1/DTD/svg11.dtd">
<svg version="1.1" id="icons" xmlns="http://www.w3.org/2000/svg" xmlns:xlink="http://www.w3.org/1999/xlink" x="0px" y="0px"
	 viewBox="0 0 29.75 25.854" enable-background="new 0 0 29.75 25.854" xml:space="preserve">
<g>

		<path fill="none" stroke="#FFFFFF" stroke-width="0.75" stroke-linecap="round" stroke-linejoin="round" stroke-miterlimit="10" d="
		M26.223,1.522c1.741,0.356,3.152,2.006,3.152,3.783v1.674c0,1.378-1.122,2.5-2.5,2.5h-4c-1.377,0-2.5-1.122-2.5-2.5v-1
		c-3.738-0.371-7.259-0.371-11,0v1c0,1.378-1.123,2.5-2.5,2.5h-4c-1.378,0-2.5-1.122-2.5-2.5V5.305
		C0.374,3.528,1.786,1.878,3.527,1.522C10.778,0.045,18.466-0.058,26.223,1.522z"/>

		<path fill="none" stroke="#FFFFFF" stroke-width="0.75" stroke-linecap="round" stroke-linejoin="round" stroke-miterlimit="10" d="
		M26.375,25.479h-23v-3.783c0-5.547,4.06-10.087,9.609-10.087h3.783c5.547,0,9.608,4.54,9.608,10.087V25.479z"/>

		<line fill="none" stroke="#FFFFFF" stroke-width="0.75" stroke-linecap="round" stroke-linejoin="round" stroke-miterlimit="10" x1="12.375" y1="9.087" x2="12.375" y2="11.609"/>

		<line fill="none" stroke="#FFFFFF" stroke-width="0.75" stroke-linecap="round" stroke-linejoin="round" stroke-miterlimit="10" x1="17.397" y1="9.087" x2="17.397" y2="11.609"/>

		<circle fill="none" stroke="#FFFFFF" stroke-width="0.75" stroke-linecap="round" stroke-linejoin="round" stroke-miterlimit="10" cx="14.875" cy="18.979" r="4.5"/>
</g>
</svg>
